<svg width="44" height="44" viewBox="0 0 44 44" fill="none" xmlns="http://www.w3.org/2000/svg">
<path d="M31.8571 0H12.1421C5.44694 0 0 5.4472 0 12.1423V31.8574C0 38.5528 5.44694 43.9997 12.1421 43.9997H31.8571C38.5528 43.9997 43.9997 38.5525 43.9997 31.8574V12.1423C44 5.4472 38.5528 0 31.8571 0ZM40.0961 31.8574C40.0961 36.4002 36.4002 40.0959 31.8574 40.0959H12.1421C7.59953 40.0961 3.90387 36.4002 3.90387 31.8574V12.1423C3.90387 7.59979 7.59953 3.90387 12.1421 3.90387H31.8571C36.3999 3.90387 40.0959 7.59979 40.0959 12.1423V31.8574H40.0961Z" fill="url(#paint0_linear_1_96)"/>
<path d="M21.9999 10.6628C15.7482 10.6628 10.6623 15.7487 10.6623 22.0004C10.6623 28.2518 15.7482 33.3375 21.9999 33.3375C28.2515 33.3375 33.3375 28.2518 33.3375 22.0004C33.3375 15.7487 28.2515 10.6628 21.9999 10.6628ZM21.9999 29.4334C17.9011 29.4334 14.5661 26.0989 14.5661 22.0001C14.5661 17.9011 17.9008 14.5664 21.9999 14.5664C26.0989 14.5664 29.4336 17.9011 29.4336 22.0001C29.4336 26.0989 26.0987 29.4334 21.9999 29.4334Z" fill="url(#paint1_linear_1_96)"/>
<path d="M33.813 7.35255C33.0608 7.35255 32.322 7.65705 31.7908 8.19058C31.257 8.7215 30.9501 9.46064 30.9501 10.2154C30.9501 10.9678 31.2572 11.7067 31.7908 12.2402C32.3217 12.7711 33.0608 13.0782 33.813 13.0782C34.5677 13.0782 35.3043 12.7711 35.8378 12.2402C36.3713 11.7067 36.6758 10.9675 36.6758 10.2154C36.6758 9.46064 36.3713 8.7215 35.8378 8.19058C35.3069 7.65705 34.5677 7.35255 33.813 7.35255Z" fill="url(#paint2_linear_1_96)"/>
<defs>
<linearGradient id="paint0_linear_1_96" x1="21.9999" y1="0" x2="21.9999" y2="43.9997" gradientUnits="userSpaceOnUse">
<stop stop-color="#01D1D1"/>
<stop offset="1" stop-color="#563FB8"/>
</linearGradient>
<linearGradient id="paint1_linear_1_96" x1="21.9999" y1="10.6628" x2="21.9999" y2="33.3375" gradientUnits="userSpaceOnUse">
<stop stop-color="#01D1D1"/>
<stop offset="1" stop-color="#563FB8"/>
</linearGradient>
<linearGradient id="paint2_linear_1_96" x1="33.813" y1="7.35255" x2="33.813" y2="13.0782" gradientUnits="userSpaceOnUse">
<stop stop-color="#01D1D1"/>
<stop offset="1" stop-color="#563FB8"/>
</linearGradient>
</defs>
</svg>
