<svg width="110" height="110" viewBox="0 0 110 110" fill="none" xmlns="http://www.w3.org/2000/svg">
<path d="M79.0625 96.25C75.2812 96.25 71.8438 93.8438 70.4688 90.0625C70.4688 89.7188 70.4688 89.375 70.125 89.375H39.5312C39.5312 89.7188 39.5312 90.0625 39.1875 90.0625C38.1562 93.8438 34.7188 96.25 30.9375 96.25C28.875 96.25 27.5 97.625 27.5 99.6875C27.5 101.75 28.875 103.125 30.9375 103.125H79.0625C81.125 103.125 82.5 101.75 82.5 99.6875C82.5 97.625 81.125 96.25 79.0625 96.25Z" fill="url(#paint0_linear_96_166)"/>
<path d="M92.8125 10.3125H17.1875C11.3438 10.3125 6.875 14.7812 6.875 20.625V72.1875C6.875 78.0312 11.3438 82.5 17.1875 82.5H40.9062H68.75H92.8125C98.6562 82.5 103.125 78.0312 103.125 72.1875V20.625C103.125 14.7812 98.6562 10.3125 92.8125 10.3125Z" fill="url(#paint1_linear_96_166)"/>
<defs>
<linearGradient id="paint0_linear_96_166" x1="55" y1="89.375" x2="55" y2="103.125" gradientUnits="userSpaceOnUse">
<stop stop-color="#5A35B6"/>
<stop offset="1" stop-color="#01D1D1"/>
</linearGradient>
<linearGradient id="paint1_linear_96_166" x1="55" y1="10.3125" x2="55" y2="82.5" gradientUnits="userSpaceOnUse">
<stop stop-color="#5A35B6"/>
<stop offset="1" stop-color="#01D1D1"/>
</linearGradient>
</defs>
</svg>
