<svg width="130" height="130" viewBox="0 0 130 130" fill="none" xmlns="http://www.w3.org/2000/svg">
<path d="M48.237 88L48.237 81.28L65.517 64.96C66.8823 63.7227 67.885 62.6133 68.525 61.632C69.165 60.6507 69.5917 59.7547 69.805 58.944C70.061 58.1333 70.189 57.3867 70.189 56.704C70.189 54.912 69.5703 53.5467 68.333 52.608C67.1383 51.6267 65.3677 51.136 63.021 51.136C61.1437 51.136 59.3943 51.4987 57.773 52.224C56.1943 52.9493 54.8503 54.08 53.741 55.616L46.189 50.752C47.8957 48.192 50.285 46.1653 53.357 44.672C56.429 43.1787 59.9703 42.432 63.981 42.432C67.309 42.432 70.2103 42.9867 72.685 44.096C75.2023 45.1627 77.1437 46.6773 78.509 48.64C79.917 50.6027 80.621 52.9493 80.621 55.68C80.621 57.1307 80.429 58.5813 80.045 60.032C79.7037 61.44 78.9783 62.9333 77.869 64.512C76.8023 66.0907 75.2237 67.8613 73.133 69.824L58.797 83.328L56.813 79.552L82.093 79.552L82.093 88L48.237 88Z" fill="#01D1D1"/>
<rect x="2.5" y="2.5" width="125" height="125" rx="62.5" stroke="url(#paint0_linear_96_219)" stroke-width="5"/>
<defs>
<linearGradient id="paint0_linear_96_219" x1="65" y1="0" x2="65" y2="130" gradientUnits="userSpaceOnUse">
<stop stop-color="#01D1D1"/>
<stop offset="1" stop-color="#5A35B6"/>
</linearGradient>
</defs>
</svg>
