<svg width="130" height="130" viewBox="0 0 130 130" fill="none" xmlns="http://www.w3.org/2000/svg">
<path d="M63.0865 88.768C59.9718 88.768 56.8785 88.3627 53.8065 87.552C50.7345 86.6987 48.1318 85.504 45.9985 83.968L50.0305 76.032C51.7372 77.2693 53.7212 78.2507 55.9825 78.976C58.2438 79.7013 60.5265 80.064 62.8305 80.064C65.4332 80.064 67.4812 79.552 68.9745 78.528C70.4678 77.504 71.2145 76.096 71.2145 74.304C71.2145 72.5973 70.5532 71.2533 69.2305 70.272C67.9078 69.2907 65.7745 68.8 62.8305 68.8L58.0945 68.8L58.0945 61.952L70.5745 47.808L71.7265 51.52L48.2385 51.52L48.2385 43.2L79.5985 43.2L79.5985 49.92L67.1825 64.064L61.9345 61.056L64.9425 61.056C70.4465 61.056 74.6065 62.2933 77.4225 64.768C80.2385 67.2427 81.6465 70.4213 81.6465 74.304C81.6465 76.8213 80.9852 79.1893 79.6625 81.408C78.3398 83.584 76.3132 85.3547 73.5825 86.72C70.8518 88.0853 67.3532 88.768 63.0865 88.768Z" fill="#01D1D1"/>
<rect x="2.5" y="2.5" width="125" height="125" rx="62.5" stroke="url(#paint0_linear_96_223)" stroke-width="5"/>
<defs>
<linearGradient id="paint0_linear_96_223" x1="65" y1="0" x2="65" y2="130" gradientUnits="userSpaceOnUse">
<stop stop-color="#01D1D1"/>
<stop offset="1" stop-color="#5A35B6"/>
</linearGradient>
</defs>
</svg>
