<svg width="130" height="130" viewBox="0 0 130 130" fill="none" xmlns="http://www.w3.org/2000/svg">
<path d="M63.6968 88.768C60.5821 88.768 57.4888 88.3627 54.4168 87.552C51.3874 86.6987 48.7848 85.504 46.6088 83.968L50.7048 76.032C52.4114 77.2693 54.3741 78.2507 56.5928 78.976C58.8541 79.7013 61.1368 80.064 63.4408 80.064C66.0434 80.064 68.0914 79.552 69.5848 78.528C71.0781 77.504 71.8248 76.0747 71.8248 74.24C71.8248 73.088 71.5261 72.064 70.9288 71.168C70.3314 70.272 69.2648 69.5893 67.7288 69.12C66.2354 68.6507 64.1234 68.416 61.3928 68.416L49.9368 68.416L52.2408 43.2L79.5688 43.2L79.5688 51.52L55.9528 51.52L61.3288 46.784L59.7288 64.768L54.3528 60.032L63.8248 60.032C68.2621 60.032 71.8248 60.6507 74.5128 61.888C77.2434 63.0827 79.2274 64.7253 80.4648 66.816C81.7021 68.9067 82.3208 71.2747 82.3208 73.92C82.3208 76.5653 81.6594 79.0187 80.3368 81.28C79.0141 83.4987 76.9661 85.312 74.1928 86.72C71.4621 88.0853 67.9634 88.768 63.6968 88.768Z" fill="#01D1D1"/>
<rect x="2.5" y="2.5" width="125" height="125" rx="62.5" stroke="url(#paint0_linear_96_231)" stroke-width="5"/>
<defs>
<linearGradient id="paint0_linear_96_231" x1="65" y1="0" x2="65" y2="130" gradientUnits="userSpaceOnUse">
<stop stop-color="#01D1D1"/>
<stop offset="1" stop-color="#5A35B6"/>
</linearGradient>
</defs>
</svg>
