<svg width="130" height="133" viewBox="0 0 130 133" fill="none" xmlns="http://www.w3.org/2000/svg">
<path d="M67.153 88.768C63.057 88.768 59.4943 87.9147 56.465 86.208C53.4783 84.5013 51.1743 82.0053 49.553 78.72C47.9317 75.4347 47.121 71.3813 47.121 66.56C47.121 61.3973 48.081 57.024 50.001 53.44C51.9637 49.856 54.6517 47.1253 58.065 45.248C61.521 43.3707 65.489 42.432 69.969 42.432C72.3583 42.432 74.641 42.688 76.817 43.2C78.993 43.712 80.8703 44.48 82.449 45.504L78.609 53.12C77.3717 52.2667 76.049 51.6907 74.641 51.392C73.233 51.0507 71.761 50.88 70.225 50.88C66.3423 50.88 63.2703 52.0533 61.009 54.4C58.7477 56.7467 57.617 60.224 57.617 64.832C57.617 65.6 57.617 66.4533 57.617 67.392C57.6597 68.3307 57.7877 69.2693 58.001 70.208L55.121 67.52C55.9317 65.856 56.977 64.4693 58.257 63.36C59.537 62.208 61.0517 61.3547 62.801 60.8C64.593 60.2027 66.5557 59.904 68.689 59.904C71.5903 59.904 74.193 60.48 76.497 61.632C78.801 62.784 80.6357 64.4053 82.001 66.496C83.409 68.5867 84.113 71.04 84.113 73.856C84.113 76.8853 83.345 79.5307 81.809 81.792C80.3157 84.0107 78.289 85.7387 75.729 86.976C73.2117 88.1707 70.353 88.768 67.153 88.768ZM66.577 81.024C68.0277 81.024 69.3077 80.768 70.417 80.256C71.569 79.7013 72.465 78.912 73.105 77.888C73.745 76.864 74.065 75.6907 74.065 74.368C74.065 72.32 73.361 70.6987 71.953 69.504C70.5877 68.2667 68.753 67.648 66.449 67.648C64.913 67.648 63.569 67.9467 62.417 68.544C61.265 69.0987 60.3477 69.888 59.665 70.912C59.025 71.8933 58.705 73.0453 58.705 74.368C58.705 75.648 59.025 76.8 59.665 77.824C60.305 78.8053 61.201 79.5947 62.353 80.192C63.505 80.7467 64.913 81.024 66.577 81.024Z" fill="#01D1D1"/>
<rect x="2.5" y="2.5" width="125" height="128" rx="62.5" stroke="url(#paint0_linear_96_235)" stroke-width="5"/>
<defs>
<linearGradient id="paint0_linear_96_235" x1="65" y1="0" x2="65" y2="133" gradientUnits="userSpaceOnUse">
<stop stop-color="#01D1D1"/>
<stop offset="1" stop-color="#5A35B6"/>
</linearGradient>
</defs>
</svg>
