<svg width="330" height="330" viewBox="0 0 330 330" fill="none" xmlns="http://www.w3.org/2000/svg">
<path d="M315 0.000976562H15C6.716 0.000976562 0 6.71698 0 15.001V314.999C0 323.283 6.716 329.999 15 329.999H315C323.284 329.999 330 323.283 330 314.999V15.001C330 6.71698 323.284 0.000976562 315 0.000976562ZM300 299.999H30V30.001H300V299.999Z" fill="white"/>
<path d="M84.394 245.606C87.323 248.536 91.161 250 95 250C98.838 250 102.678 248.535 105.606 245.606L164.999 186.214L224.39 245.606C227.32 248.536 231.158 250 234.997 250C238.835 250 242.675 248.535 245.603 245.606C251.461 239.749 251.461 230.251 245.603 224.393L186.212 165L245.606 105.607C251.464 99.75 251.464 90.252 245.606 84.394C239.749 78.536 230.252 78.536 224.393 84.394L165 143.788L105.607 84.393C99.748 78.535 90.252 78.535 84.394 84.393C78.536 90.25 78.536 99.748 84.394 105.606L143.787 165.001L84.394 224.394C78.536 230.251 78.536 239.749 84.394 245.606Z" fill="white"/>
</svg>
