<svg width="44" height="44" viewBox="0 0 44 44" fill="none" xmlns="http://www.w3.org/2000/svg">
<path d="M40.5023 1.00521H3.50207C1.56513 1.00521 0 2.56887 0 4.50287V39.4986C0 41.4267 1.56513 42.9948 3.50207 42.9948H40.5023C42.4305 42.9948 44 41.4282 44 39.4986V4.50287C43.9985 2.56887 42.429 1.00521 40.5023 1.00521ZM29.5758 13.4719C28.6661 12.9399 27.9446 12.5196 27.0378 12.5196C26.1502 12.5196 25.3918 12.7415 25.0039 13.1148C24.6159 13.4851 24.4234 14.2023 24.4234 15.2619V16.8299H29.1687L28.1415 21.1917H24.4234V35.685H18.4627V21.1917H15.6807V16.8299H18.4656V15.1649C18.4656 13.4116 18.6758 12.3623 19.0902 11.4967C19.5031 10.6341 20.3041 9.67295 21.418 9.12919C22.5305 8.58691 24.1765 8.31356 25.8798 8.31356C27.6257 8.31356 28.9894 8.89552 30.6619 9.36433L29.5758 13.4719Z" fill="white"/>
</svg>
