<svg width="110" height="110" viewBox="0 0 110 110" fill="none" xmlns="http://www.w3.org/2000/svg">
<path d="M27.4775 54.9888C27.4775 64.2681 35.0225 71.8132 44.3018 71.8132C53.5811 71.8132 61.1261 64.2681 61.1261 54.9888C61.1261 45.7095 53.5811 38.1645 44.3018 38.1645C35.0225 38.1645 27.4775 45.7095 27.4775 54.9888ZM52.9054 51.2501L45.3829 58.7276L42.0946 61.9933L38.8288 58.705L35.6757 55.5519L38.964 52.2861L42.1171 55.4393L49.6396 47.9618L52.9054 51.2501ZM0 74.7411V35.2366C0 31.0023 3.44595 27.5564 7.68018 27.5564H80.9234C85.1577 27.5564 88.6036 31.0023 88.6036 35.2366V37.5564H83.5135C80.8559 37.5564 78.7162 39.7186 78.7162 42.3537V43.6375C75.0901 42.9618 72.3649 39.8087 72.3649 36.0023C72.3649 35.3492 72.4549 34.7186 72.5901 34.1105H15.5631C15.6532 34.5834 15.6982 35.0564 15.6982 35.5294C15.6982 39.8312 12.2072 43.2996 7.92793 43.2996C7.45496 43.2996 7.0045 43.2546 6.55405 43.187V66.7906C7.0045 66.7231 7.45496 66.678 7.92793 66.678C12.2297 66.678 15.6982 70.1465 15.6982 74.4483C15.6982 74.9438 15.6532 75.4168 15.5631 75.8672H63.3108L63.2883 78.66V81.678C63.2883 81.9258 63.3333 82.196 63.3559 82.4438H7.68018C3.44595 82.4213 0 78.9753 0 74.7411ZM94.4369 78.6375V81.6555C94.4369 82.0834 94.0991 82.4213 93.6712 82.4213H83.491C83.0631 82.4213 82.7252 82.0834 82.7252 81.6555V78.6375C82.7252 78.2095 83.0631 77.8717 83.491 77.8717H93.6712C94.0991 77.8942 94.4369 78.2321 94.4369 78.6375ZM94.4369 72.6014V75.6195C94.4369 76.0474 94.0991 76.3852 93.6712 76.3852H83.491C83.0631 76.3852 82.7252 76.0474 82.7252 75.6195V72.6014C82.7252 72.1735 83.0631 71.8357 83.491 71.8357H93.6712C94.0991 71.8357 94.4369 72.1735 94.4369 72.6014ZM94.4369 66.5429V69.5609C94.4369 69.9888 94.0991 70.3267 93.6712 70.3267H83.491C83.0631 70.3267 82.7252 69.9888 82.7252 69.5609V66.5429C82.7252 66.115 83.0631 65.7771 83.491 65.7771H93.6712C94.0991 65.7996 94.4369 66.1375 94.4369 66.5429ZM94.4369 60.5068V63.5249C94.4369 63.9528 94.0991 64.2906 93.6712 64.2906H83.491C83.0631 64.2906 82.7252 63.9528 82.7252 63.5249V60.5068C82.7252 60.0789 83.0631 59.7411 83.491 59.7411H93.6712C94.0991 59.7411 94.4369 60.0789 94.4369 60.5068ZM94.4369 54.4483V57.4663C94.4369 57.8942 94.0991 58.2321 93.6712 58.2321H83.491C83.0631 58.2321 82.7252 57.8942 82.7252 57.4663V54.4483C82.7252 54.0204 83.0631 53.6825 83.491 53.6825H93.6712C94.0991 53.705 94.4369 54.0429 94.4369 54.4483ZM94.4369 48.4123V51.4303C94.4369 51.8582 94.0991 52.196 93.6712 52.196H83.491C83.0856 52.196 82.7477 51.8582 82.7477 51.4303V48.4123C82.7477 47.9843 83.0856 47.6465 83.5135 47.6465H93.6937C94.0991 47.6465 94.4369 47.9843 94.4369 48.4123ZM94.4369 42.3537V45.3717C94.4369 45.7996 94.0991 46.1375 93.6712 46.1375H83.491C83.0631 46.1375 82.7252 45.7996 82.7252 45.3717V42.3762C82.7252 41.9483 83.0631 41.6105 83.491 41.6105H93.6712C94.0991 41.6105 94.4369 41.9483 94.4369 42.3537ZM110 78.6375V81.6555C110 82.0834 109.662 82.4213 109.234 82.4213H99.0541C98.6261 82.4213 98.2883 82.0834 98.2883 81.6555V78.6375C98.2883 78.2095 98.6261 77.8717 99.0541 77.8717H109.234C109.662 77.8942 110 78.2321 110 78.6375ZM110 72.6014V75.6195C110 76.0474 109.662 76.3852 109.234 76.3852H99.0541C98.6261 76.3852 98.2883 76.0474 98.2883 75.6195V72.6014C98.2883 72.1735 98.6261 71.8357 99.0541 71.8357H109.234C109.662 71.8357 110 72.1735 110 72.6014ZM110 66.5429V69.5609C110 69.9888 109.662 70.3267 109.234 70.3267H99.0541C98.6261 70.3267 98.2883 69.9888 98.2883 69.5609V66.5429C98.2883 66.115 98.6261 65.7771 99.0541 65.7771H109.234C109.662 65.7996 110 66.1375 110 66.5429ZM78.8739 78.66V81.678C78.8739 82.1059 78.536 82.4438 78.1081 82.4438H67.9279C67.5 82.4438 67.1622 82.1059 67.1622 81.678V78.66C67.1622 78.2321 67.5 77.8942 67.9279 77.8942H78.1081C78.536 77.8942 78.8739 78.2321 78.8739 78.66ZM78.8739 75.6195C78.8739 76.0474 78.536 76.3852 78.1081 76.3852H67.9279C67.5 76.3852 67.1622 76.0474 67.1622 75.6195V72.6014C67.1622 72.1735 67.5 71.8357 67.9279 71.8357H78.1081C78.536 71.8357 78.8739 72.1735 78.8739 72.6014V75.6195ZM78.8739 69.5609C78.8739 69.9888 78.536 70.3267 78.1081 70.3267H67.9279C67.5 70.3267 67.1622 69.9888 67.1622 69.5609V66.5429C67.1622 66.115 67.5 65.7771 67.9279 65.7771H78.1081C78.536 65.7771 78.8739 66.115 78.8739 66.5429V69.5609ZM78.8739 63.5249C78.8739 63.9528 78.536 64.2906 78.1081 64.2906H67.9279C67.5 64.2906 67.1622 63.9528 67.1622 63.5249V60.5068C67.1622 60.0789 67.5 59.7411 67.9279 59.7411H78.1081C78.536 59.7411 78.8739 60.0789 78.8739 60.5068V63.5249ZM78.8739 57.4663C78.8739 57.8942 78.536 58.2321 78.1081 58.2321H67.9279C67.5 58.2321 67.1622 57.8942 67.1622 57.4663V54.4483C67.1622 54.0204 67.5 53.6825 67.9279 53.6825H78.1081C78.536 53.6825 78.8739 54.0204 78.8739 54.4483V57.4663ZM19.8423 50.3267C22.4099 50.3267 24.5045 52.4213 24.5045 54.9888C24.5045 57.5564 22.4099 59.651 19.8423 59.651C17.2748 59.651 15.1802 57.5564 15.1802 54.9888C15.1802 52.4213 17.2523 50.3267 19.8423 50.3267Z" fill="url(#paint0_linear_96_173)"/>
<defs>
<linearGradient id="paint0_linear_96_173" x1="55" y1="27.5564" x2="55" y2="82.4438" gradientUnits="userSpaceOnUse">
<stop stop-color="#5A35B6"/>
<stop offset="1" stop-color="#01D1D1"/>
</linearGradient>
</defs>
</svg>
