<svg width="110" height="110" viewBox="0 0 110 110" fill="none" xmlns="http://www.w3.org/2000/svg">
<g clip-path="url(#clip0_96_193)">
<path d="M108.914 41.7641C108.263 41.5405 107.543 41.753 107.118 42.2955L88.0436 66.7618C87.2853 67.7347 86.0568 68.2132 84.8447 68.0094L64.046 64.5297C62.984 64.352 61.8994 64.6944 61.1322 65.4531L42.1242 84.2444C41.5782 84.7849 40.859 85.1224 40.093 85.1972L15.3851 87.638C14.5794 87.7168 13.8278 88.0869 13.2707 88.6769L0.535993 102.212C-0.00354857 102.783 -0.150091 103.621 0.161866 104.341C0.473601 105.061 1.18411 105.526 1.96877 105.526H106.012C108.215 105.526 110 103.742 110 101.539V43.2866C110 42.5994 109.564 41.9873 108.914 41.7641Z" fill="url(#paint0_linear_96_193)"/>
<path d="M6.51313 61.1639C7.51317 61.1639 8.50655 60.7682 9.24681 59.984L14.5969 54.3419C15.3818 54.5706 16.202 54.7323 17.0599 54.7323C21.2779 54.7323 24.7998 51.7801 25.7232 47.8403L34.1934 47.0051C35.6552 49.9388 38.6531 51.9779 42.1495 51.9779C47.06 51.9779 51.0615 47.9798 51.0615 43.0653C51.0615 41.9658 50.835 40.9231 50.4689 39.9502L58.0289 32.5378C59.2676 33.1921 60.6562 33.5971 62.1514 33.5971C65.479 33.5971 68.3561 31.7391 69.8844 29.0268L74.7995 29.8499C75.9383 33.4579 79.2812 36.1001 83.2607 36.1001C88.1757 36.1001 92.1738 32.1019 92.1738 27.187C92.1738 25.7913 91.8219 24.4866 91.2504 23.3099L101.211 10.5307C102.486 8.89635 102.193 6.53791 100.558 5.26455C98.9312 3.99474 96.5714 4.28383 95.2927 5.91688L85.335 18.5437C84.668 18.3827 83.9788 18.2746 83.2605 18.2746C80.1094 18.2746 77.3533 19.9272 75.7707 22.4009L70.4559 21.5123C69.1694 18.1647 65.945 15.7716 62.1511 15.7716C57.2373 15.7716 53.2392 19.7698 53.2392 24.6843C53.2392 25.2817 53.3047 25.8646 53.4146 26.429L45.0366 34.6744C44.1287 34.3591 43.164 34.1522 42.1495 34.1522C38.5099 34.1522 35.3844 36.3492 33.9991 39.481L24.1324 40.4557C22.5053 38.3136 19.9544 36.9067 17.0597 36.9067C12.1492 36.9067 8.14686 40.9049 8.14686 45.8194C8.14686 47.0914 8.42529 48.2966 8.90932 49.3906L3.78235 54.8382C2.36044 56.3484 2.43394 58.7231 3.93999 60.1437C4.66604 60.8264 5.58948 61.1639 6.51313 61.1639ZM83.2607 23.9038C85.071 23.9038 86.5451 25.3768 86.5451 27.187C86.5451 28.9979 85.071 30.4709 83.2607 30.4709C81.4505 30.4709 79.9773 28.9979 79.9773 27.187C79.9773 25.3768 81.4505 23.9038 83.2607 23.9038ZM62.1514 21.401C63.9616 21.401 65.4359 22.874 65.4359 24.6843C65.4359 26.4945 63.9616 27.9681 62.1514 27.9681C60.3409 27.9681 58.8682 26.4945 58.8682 24.6843C58.8682 22.874 60.3409 21.401 62.1514 21.401ZM42.1497 39.7814C43.9602 39.7814 45.4329 41.2551 45.4329 43.0653C45.4329 44.8755 43.9602 46.3492 42.1497 46.3492C40.3395 46.3492 38.8654 44.8755 38.8654 43.0653C38.8654 41.2551 40.3395 39.7814 42.1497 39.7814ZM17.0599 42.5357C18.8702 42.5357 20.3434 44.0087 20.3434 45.8192C20.3434 47.6294 18.8704 49.1028 17.0599 49.1028C15.2495 49.1028 13.7767 47.6294 13.7767 45.8192C13.7767 44.0087 15.2495 42.5357 17.0599 42.5357Z" fill="url(#paint1_linear_96_193)"/>
</g>
<defs>
<linearGradient id="paint0_linear_96_193" x1="55" y1="41.6763" x2="55" y2="105.526" gradientUnits="userSpaceOnUse">
<stop stop-color="#5A35B6"/>
<stop offset="1" stop-color="#02D0D1"/>
</linearGradient>
<linearGradient id="paint1_linear_96_193" x1="52.3831" y1="4.47363" x2="52.3831" y2="61.1639" gradientUnits="userSpaceOnUse">
<stop stop-color="#5A35B6"/>
<stop offset="1" stop-color="#02D0D1"/>
</linearGradient>
<clipPath id="clip0_96_193">
<rect width="110" height="110" fill="white"/>
</clipPath>
</defs>
</svg>
