<svg width="110" height="110" viewBox="0 0 110 110" fill="none" xmlns="http://www.w3.org/2000/svg">
<path d="M63.75 77.0499C63.75 78.4299 62.6313 79.5499 61.2501 79.5499H48.7501C47.3701 79.5499 46.2501 78.4299 46.2501 77.0499V68.2673L0 57.76V99.6289C0 102.39 2.23882 104.629 4.99997 104.629H105C107.761 104.629 110 102.39 110 99.6289V57.8024L63.75 68.2736V77.0499Z" fill="url(#paint0_linear_96_179)"/>
<path d="M105 29.6289H4.99997C2.23882 29.6289 0 31.8676 0 34.6289V51.3526L46.25 61.8589V57.0502C46.25 55.6702 47.3699 54.5502 48.75 54.5502H61.2499C62.6312 54.5502 63.7499 55.6702 63.7499 57.0502V61.8652L110 51.3938V34.6289C110 31.8676 107.761 29.6289 105 29.6289Z" fill="url(#paint1_linear_96_179)"/>
<path d="M35.7076 18.0239C35.7076 14.2889 38.7462 11.25 42.4801 11.25H67.5188C71.2538 11.25 74.2926 14.2887 74.2926 18.0239V24.6276H80.1713V18.0239C80.1713 11.0464 74.4962 5.37134 67.5188 5.37134H42.48C35.5038 5.37134 29.8274 11.0464 29.8274 18.0239V24.6276H35.7074L35.7076 18.0239Z" fill="url(#paint2_linear_96_179)"/>
<defs>
<linearGradient id="paint0_linear_96_179" x1="55" y1="57.76" x2="55" y2="104.629" gradientUnits="userSpaceOnUse">
<stop stop-color="#5A35B6"/>
<stop offset="1" stop-color="#01D1D1"/>
</linearGradient>
<linearGradient id="paint1_linear_96_179" x1="55" y1="29.6289" x2="55" y2="61.8652" gradientUnits="userSpaceOnUse">
<stop stop-color="#5A35B6"/>
<stop offset="1" stop-color="#01D1D1"/>
</linearGradient>
<linearGradient id="paint2_linear_96_179" x1="54.9994" y1="5.37134" x2="54.9994" y2="24.6276" gradientUnits="userSpaceOnUse">
<stop stop-color="#5A35B6"/>
<stop offset="1" stop-color="#01D1D1"/>
</linearGradient>
</defs>
</svg>
