<svg width="110" height="110" viewBox="0 0 110 110" fill="none" xmlns="http://www.w3.org/2000/svg">
<path fill-rule="evenodd" clip-rule="evenodd" d="M78.5714 0C82.9109 0 86.4286 3.5178 86.4286 7.85714V15.7143H94.2857C102.965 15.7143 110 22.7498 110 31.4286V94.2857C110 102.965 102.965 110 94.2857 110H15.7143C7.03552 110 0 102.965 0 94.2857V31.4286C0 22.7498 7.03552 15.7143 15.7143 15.7143H23.5714V7.85714C23.5714 3.5178 27.0892 0 31.4286 0C35.7679 0 39.2857 3.5178 39.2857 7.85714V15.7143H70.7143V7.85714C70.7143 3.5178 74.2319 0 78.5714 0ZM23.5714 31.4286H15.7143V94.2857H94.2857V31.4286H86.4286C86.4286 35.7679 82.9109 39.2857 78.5714 39.2857C74.2319 39.2857 70.7143 35.7679 70.7143 31.4286H39.2857C39.2857 35.7679 35.7679 39.2857 31.4286 39.2857C27.0892 39.2857 23.5714 35.7679 23.5714 31.4286ZM63.808 49.4441C66.8764 46.3758 71.8512 46.3758 74.9194 49.4441C77.9884 52.5126 77.9884 57.4874 74.9194 60.5559L52.6987 82.7766C49.6303 85.8456 44.6554 85.8456 41.587 82.7766L33.7299 74.9194C30.6615 71.8512 30.6615 66.8764 33.7299 63.808C36.7983 60.7396 41.7731 60.7396 44.8416 63.808L47.1429 66.1093L63.808 49.4441Z" fill="url(#paint0_linear_96_189)"/>
<defs>
<linearGradient id="paint0_linear_96_189" x1="55" y1="0" x2="55" y2="110" gradientUnits="userSpaceOnUse">
<stop stop-color="#5A35B6"/>
<stop offset="1" stop-color="#02D0D1"/>
</linearGradient>
</defs>
</svg>
