<svg width="59" height="59" viewBox="0 0 59 59" fill="none" xmlns="http://www.w3.org/2000/svg">
<path d="M47 39C44.329 39 41.818 40.04 39.929 41.929C39.405 42.453 38.954 43.029 38.564 43.638L21.284 33.149C21.741 32.005 22 30.761 22 29.456C22 28.151 21.741 26.907 21.285 25.763L38.569 15.354C40.345 18.142 43.456 20 47 20C52.514 20 57 15.514 57 10C57 4.486 52.514 0 47 0C41.486 0 37 4.486 37 10C37 11.256 37.243 12.454 37.667 13.562L20.361 23.985C18.573 21.261 15.495 19.456 12 19.456C6.486 19.456 2 23.942 2 29.456C2 34.97 6.486 39.456 12 39.456C15.495 39.456 18.572 37.651 20.36 34.927L37.664 45.43C37.234 46.556 37 47.759 37 49C37 51.671 38.04 54.183 39.929 56.071C41.818 57.96 44.329 59 47 59C49.671 59 52.182 57.96 54.071 56.071C55.96 54.183 57 51.671 57 49C57 46.329 55.96 43.817 54.071 41.929C52.182 40.04 49.671 39 47 39Z" fill="white"/>
</svg>
