<svg width="419" height="419" viewBox="0 0 419 419" fill="none" xmlns="http://www.w3.org/2000/svg">
<g clip-path="url(#clip0_359_36)">
<path d="M198.929 0.241812C88.5004 5.49981 1.35639 97.4658 1.69139 208.02C1.79339 241.692 9.92239 273.474 24.2624 301.556L2.24539 408.429C1.05439 414.21 6.26839 419.272 12.0114 417.912L116.734 393.101C143.639 406.503 173.859 414.244 205.842 414.732C318.711 416.456 412.824 326.835 416.342 214.008C420.113 93.0648 320.295 -5.53819 198.929 0.241812ZM323.886 322.197C293.217 352.866 252.44 369.756 209.068 369.756C183.672 369.756 159.358 364.058 136.799 352.821L122.215 345.556L58.0094 360.768L71.5244 295.161L64.3394 281.091C52.6284 258.156 46.6904 233.355 46.6904 207.378C46.6904 164.005 63.5804 123.229 94.2494 92.5588C124.644 62.1638 166.086 44.9988 209.071 44.9988C252.443 44.9998 293.218 61.8898 323.887 92.5578C354.556 123.227 371.446 164.003 371.447 207.375C371.446 250.361 354.281 291.803 323.886 322.197Z" fill="#42C62E"/>
<path d="M309.713 252.351L269.544 240.817C264.263 239.301 258.576 240.799 254.728 244.72L244.905 254.728C240.763 258.948 234.478 260.304 228.996 258.086C209.994 250.396 170.022 214.856 159.814 197.079C156.869 191.951 157.356 185.54 160.972 180.861L169.548 169.766C172.908 165.419 173.617 159.581 171.395 154.556L154.495 116.333C150.447 107.178 138.748 104.513 131.105 110.977C119.894 120.459 106.592 134.868 104.975 150.831C102.124 178.975 114.194 214.453 159.837 257.053C212.567 306.268 254.793 312.77 282.286 306.11C297.88 302.333 310.342 287.191 318.207 274.793C323.569 266.34 319.335 255.114 309.713 252.351Z" fill="#42C62E"/>
</g>
<defs>
<clipPath id="clip0_359_36">
<rect width="418.135" height="418.135" fill="white"/>
</clipPath>
</defs>
</svg>
