<svg width="42" height="43" viewBox="0 0 42 43" fill="none" xmlns="http://www.w3.org/2000/svg">
<g clip-path="url(#clip0_91_61)">
<path d="M35.7026 6.2512C33.7771 4.26158 31.4841 2.6842 28.9572 1.61097C26.4302 0.537749 23.72 -0.00985502 20.9842 7.15407e-05C9.52087 7.15407e-05 0.1785 9.5622 0.168 21.3012C0.168 25.061 1.12875 28.7187 2.94262 31.9571L0 43.0001L11.0355 40.0385C14.0884 41.7394 17.5086 42.631 20.9842 42.6319H20.9947C32.4607 42.6319 41.8005 33.0698 41.811 21.32C41.8136 18.5198 41.275 15.7466 40.2262 13.1604C39.1774 10.5742 37.6391 8.22606 35.7 6.2512H35.7026ZM20.9842 39.0253C17.8841 39.0263 14.841 38.1722 12.1747 36.5528L11.5447 36.1658L4.998 37.9234L6.74625 31.3847L6.33675 30.7101C4.60374 27.8891 3.6872 24.623 3.69337 21.2904C3.69337 11.5456 11.4555 3.59595 20.9947 3.59595C23.2673 3.59177 25.5182 4.04818 27.6177 4.93887C29.7171 5.82955 31.6236 7.13689 33.2272 8.78551C34.8365 10.4277 36.1122 12.3798 36.9808 14.5293C37.8494 16.6788 38.2938 18.9831 38.2882 21.3093C38.2777 31.0891 30.5156 39.0253 20.9842 39.0253V39.0253ZM30.4736 25.7651C29.9565 25.4991 27.4024 24.2118 26.922 24.029C26.4442 23.8543 26.0951 23.7629 25.7539 24.2951C25.4047 24.8245 24.4072 26.0312 24.108 26.3779C23.8087 26.7353 23.499 26.7756 22.9792 26.5123C22.4621 26.2435 20.7847 25.6845 18.8002 23.8651C17.2515 22.4541 16.2146 20.7073 15.9049 20.1778C15.6056 19.6457 15.876 19.3608 16.1359 19.0948C16.3642 18.8583 16.653 18.4713 16.9129 18.1649C17.1754 17.8585 17.262 17.6328 17.4326 17.278C17.6032 16.9179 17.5219 16.6115 17.3932 16.3454C17.262 16.0794 16.2251 13.4537 15.7867 12.3948C15.3667 11.3494 14.9389 11.4945 14.6186 11.4811C14.3194 11.4623 13.9702 11.4623 13.6211 11.4623C13.3575 11.469 13.098 11.5314 12.8591 11.6456C12.6201 11.7599 12.4068 11.9234 12.2325 12.1261C11.7547 12.6582 10.4186 13.9455 10.4186 16.5712C10.4186 19.1969 12.2824 21.7204 12.5449 22.0779C12.8021 22.4353 16.2041 27.8076 21.4252 30.1189C22.659 30.6698 23.6302 30.995 24.3889 31.2423C25.6357 31.6508 26.7619 31.5889 27.6596 31.4573C28.6571 31.3014 30.7335 30.1673 31.1719 28.923C31.6024 27.6759 31.6024 26.6117 31.4711 26.3886C31.3425 26.1629 30.9934 26.0312 30.4736 25.7651V25.7651Z" fill="url(#paint0_linear_91_61)"/>
</g>
<defs>
<linearGradient id="paint0_linear_91_61" x1="20.9055" y1="-6.10352e-05" x2="20.9055" y2="43.0001" gradientUnits="userSpaceOnUse">
<stop stop-color="#01D1D1"/>
<stop offset="1" stop-color="#5A35B6"/>
</linearGradient>
<clipPath id="clip0_91_61">
<rect width="42" height="43" fill="white"/>
</clipPath>
</defs>
</svg>
