<svg width="48" height="48" viewBox="0 0 48 48" fill="none" xmlns="http://www.w3.org/2000/svg">
<g clip-path="url(#clip0_91_59)" filter="url(#filter0_d_91_59)">
<path d="M38.0025 5.81512C36.1687 3.96431 33.9848 2.49698 31.5782 1.49864C29.1717 0.500288 26.5904 -0.00911068 23.985 0.000123326C13.0675 0.000123326 4.17 8.89512 4.16 19.8151C4.16 23.3126 5.075 26.7151 6.8025 29.7276L4 40.0001L14.51 37.2451C17.4175 38.8274 20.6748 39.6568 23.985 39.6576H23.995C34.915 39.6576 43.81 30.7626 43.82 19.8326C43.8225 17.2277 43.3095 14.6481 42.3107 12.2423C41.3118 9.83655 39.8468 7.6522 38 5.81512H38.0025ZM23.985 36.3026C21.0325 36.3036 18.1343 35.5091 15.595 34.0026L14.995 33.6426L8.76 35.2776L10.425 29.1951L10.035 28.5676C8.38452 25.9434 7.51162 22.9052 7.5175 19.8051C7.5175 10.7401 14.91 3.34512 23.995 3.34512C26.1593 3.34124 28.3031 3.76581 30.3025 4.59435C32.302 5.42289 34.1177 6.63902 35.645 8.17262C37.1776 9.70025 38.3925 11.5162 39.2198 13.5157C40.0471 15.5152 40.4703 17.6587 40.465 19.8226C40.455 28.9201 33.0625 36.3026 23.985 36.3026V36.3026ZM33.0225 23.9676C32.53 23.7201 30.0975 22.5226 29.64 22.3526C29.185 22.1901 28.8525 22.1051 28.5275 22.6001C28.195 23.0926 27.245 24.2151 26.96 24.5376C26.675 24.8701 26.38 24.9076 25.885 24.6626C25.3925 24.4126 23.795 23.8926 21.905 22.2001C20.43 20.8876 19.4425 19.2626 19.1475 18.7701C18.8625 18.2751 19.12 18.0101 19.3675 17.7626C19.585 17.5426 19.86 17.1826 20.1075 16.8976C20.3575 16.6126 20.44 16.4026 20.6025 16.0726C20.765 15.7376 20.6875 15.4526 20.565 15.2051C20.44 14.9576 19.4525 12.5151 19.035 11.5301C18.635 10.5576 18.2275 10.6926 17.9225 10.6801C17.6375 10.6626 17.305 10.6626 16.9725 10.6626C16.7214 10.6689 16.4743 10.7269 16.2467 10.8332C16.0192 10.9395 15.816 11.0916 15.65 11.2801C15.195 11.7751 13.9225 12.9726 13.9225 15.4151C13.9225 17.8576 15.6975 20.2051 15.9475 20.5376C16.1925 20.8701 19.4325 25.8676 24.405 28.0176C25.58 28.5301 26.505 28.8326 27.2275 29.0626C28.415 29.4426 29.4875 29.3851 30.3425 29.2626C31.2925 29.1176 33.27 28.0626 33.6875 26.9051C34.0975 25.7451 34.0975 24.7551 33.9725 24.5476C33.85 24.3376 33.5175 24.2151 33.0225 23.9676V23.9676Z" fill="url(#paint0_linear_91_59)"/>
</g>
<defs>
<filter id="filter0_d_91_59" x="0" y="0" width="48" height="48" filterUnits="userSpaceOnUse" color-interpolation-filters="sRGB">
<feFlood flood-opacity="0" result="BackgroundImageFix"/>
<feColorMatrix in="SourceAlpha" type="matrix" values="0 0 0 0 0 0 0 0 0 0 0 0 0 0 0 0 0 0 127 0" result="hardAlpha"/>
<feOffset dy="4"/>
<feGaussianBlur stdDeviation="2"/>
<feComposite in2="hardAlpha" operator="out"/>
<feColorMatrix type="matrix" values="0 0 0 0 0 0 0 0 0 0 0 0 0 0 0 0 0 0 0.25 0"/>
<feBlend mode="normal" in2="BackgroundImageFix" result="effect1_dropShadow_91_59"/>
<feBlend mode="normal" in="SourceGraphic" in2="effect1_dropShadow_91_59" result="shape"/>
</filter>
<linearGradient id="paint0_linear_91_59" x1="23.91" y1="0" x2="23.91" y2="40.0001" gradientUnits="userSpaceOnUse">
<stop stop-color="#5A35B6"/>
<stop offset="1" stop-color="#01D1D1"/>
</linearGradient>
<clipPath id="clip0_91_59">
<rect width="40" height="40" fill="white" transform="translate(4)"/>
</clipPath>
</defs>
</svg>
