<svg width="44" height="36" viewBox="0 0 44 36" fill="none" xmlns="http://www.w3.org/2000/svg">
<g clip-path="url(#clip0_283_2)">
<path d="M42.2849 3.05514C40.6967 0.885155 37.7643 0 32.1641 0H11.8354C6.10705 0 3.12499 0.942253 1.5427 3.25253C0 5.50506 0 8.82399 0 13.4175V22.1726C0 31.0717 1.8304 35.5899 11.8354 35.5899H32.1642C37.0207 35.5899 39.7118 34.8089 41.4528 32.8938C43.2382 30.9301 43.9999 27.7237 43.9999 22.1726V13.4175C43.9999 8.57326 43.8806 5.23475 42.2849 3.05514ZM28.2481 19.0038L19.0169 24.5488C18.8105 24.6728 18.5849 24.7343 18.3595 24.7343C18.1043 24.7343 17.8496 24.6553 17.6241 24.4984C17.1994 24.2026 16.9401 23.6736 16.9401 23.103V12.0485C16.9401 11.4788 17.1987 10.9503 17.6225 10.6543C18.0465 10.3584 18.5738 10.3382 19.0137 10.6008L28.2448 16.1101C28.7145 16.3904 29.0094 16.9477 29.0102 17.5557C29.0107 18.1641 28.7171 18.7222 28.2481 19.0038Z" fill="url(#paint0_linear_283_2)"/>
</g>
<defs>
<linearGradient id="paint0_linear_283_2" x1="22" y1="0" x2="22" y2="35.5899" gradientUnits="userSpaceOnUse">
<stop stop-color="#01D1D1"/>
<stop offset="1" stop-color="#5A35B6"/>
</linearGradient>
<clipPath id="clip0_283_2">
<rect width="44" height="35.5898" fill="white"/>
</clipPath>
</defs>
</svg>
